<?xml version="1.0" encoding="utf-8"?>
<!-- Generator: Adobe Illustrator 22.1.0, SVG Export Plug-In . SVG Version: 6.00 Build 0)  -->
<svg version="1.1" id="Calque_1" xmlns="http://www.w3.org/2000/svg" xmlns:xlink="http://www.w3.org/1999/xlink" x="0px" y="0px"
	 viewBox="0 0 736 728.7" style="enable-background:new 0 0 736 728.7;" xml:space="preserve">
<g>
	<path d="M0,117c1.8,1.9,3.8,3.6,5.3,5.7c37.9,50.3,80.8,96.1,128.6,137.2c25.7,22.1,53.1,42,84.2,56c10.3,4.6,21.1,8.2,31.8,11.7
		c1.8,0.6,4.9-0.5,6.6-1.8c16.6-12.9,35-20.9,57-22.6c-6.6,3.7-12.7,6.7-18.4,10.3c-15.2,9.5-27.5,21.8-36.6,37.5
		c-9.9,17.2-11.9,35.7-9,54.6c2.1,13.8,10.1,25.1,22.2,32.4c11,6.5,22.7,7.2,34.2,0.5c2.8-1.6,5.7-3.3,8.6-5
		c3.3,16.1-8.4,42-21.7,49.9c-3-3.1-5.5-6.9-9-9c-5.4-3.3-9.8-1.6-13,3.8c-4.6,7.7-8.5,15.9-13.7,23.2c-10,13.9-10.6,13.5-24.3,5.4
		c-7.9-4.6-13.7-11.4-18.6-19.6c16.1-3.8,31.4-8.4,42-22.8c-4-4.5-7.7-9.2-11.9-13.3c-1-1-3.7-0.8-5.4-0.4
		c-11.5,2.8-22.8,6.3-34.3,8.8c-9.4,2-18.2,0.3-26.6-5.2c-13.2-8.6-25.6-17.8-37.2-30.7c31.3,8.3,61.4,15.2,93.2,9.1
		c-2-6.9-4-13.2-5.7-19.6c-1.3-5-2.3-10.1-2.9-15.2c-0.4-3.6-1.8-4.6-5.4-4.7c-20.2-0.6-40.2-3.3-59.8-8.2
		c-17.8-4.5-35-10.8-51.3-19.3c-1.7-0.9-3.7-1.9-4.9-3.4C88,342.6,77.6,320,72.4,294c7.8,7.2,14.9,13.7,22,20.4
		c24.4,23.2,52.5,40.3,84.2,51.3c14.4,5,29.1,8.5,44.4,8.5c3.5,0,5.1-1.1,6.2-4.7c2.2-7.5,5.3-14.7,8.3-22.6c-1.8-0.8-4-1.6-6.2-2.7
		c-27.1-12.7-54.3-25.4-81.4-38c-22.7-10.6-45.3-21.5-64.3-38c-14.7-12.8-28.9-26.2-42.4-40.1c-5.2-5.3-8.4-12.7-11.8-19.5
		c-13.4-26.8-23.1-54.9-29.5-84.2c-0.4-1.9-1.2-3.7-1.9-5.5C0,118.3,0,117.7,0,117z"/>
	<path d="M736,119c-2,7.3-4,14.6-5.9,22c-7.1,27.9-17.9,54.4-31.6,79.6c-3.2,5.9-8.3,10.8-13,15.7c-21.7,22.3-44.9,42.9-73,56.9
		c-32.2,16.1-64.7,31.4-97.1,46.9c-5.5,2.6-11.4,4.5-16.8,6.7c3.1,8.7,5.9,17,9.2,25.1c0.5,1.3,3.4,2.2,5.3,2.2
		c14.9,0.3,29.1-3.2,43-7.9c32.4-10.9,60.9-28.2,85.7-51.8c7-6.6,14.1-13.1,22.2-20.6c-1.6,6.3-2.8,11.7-4.4,17
		c-5.2,17-13,32.9-24,46.9c-3.3,4.1-7.9,7.7-12.6,10c-33,16.5-68.3,24-105,25.4c-5.2,0.2-6.9,1.9-7.8,6.9
		c-1.6,9.1-4.2,18.1-6.5,27.2c-0.4,1.7-1,3.4-1.7,5.6c15.9,3.2,31.4,3.3,46.7,0.9c15.2-2.3,30.3-5.9,46.3-8.2
		c-8.7,7.3-17.4,14.6-26.1,21.8c-1,0.8-2.3,1.4-3.3,2.2c-14.9,13-31.7,12.6-49.3,7c-6.5-2.1-13-4.1-19.6-5.8
		c-1.7-0.4-4.4,0.1-5.6,1.3c-3.9,3.8-7.3,8.1-11.1,12.4c4.8,7.3,11.3,12.2,18.9,15.4c7.3,3.1,15,5.3,22.8,8
		c-7,11.3-16.2,20.1-29.2,24.2c-1.6,0.5-4.5-0.4-5.6-1.7c-4.3-5-8.5-10.2-12.1-15.7c-3.3-5-5.8-10.5-8.9-15.6
		c-4.7-8-14.4-7.8-19.2,0.3c-0.9,1.5-1.7,3.2-2.7,5.1c-16.3-13.1-22.7-30.1-23.2-51.2c3.2,1.8,5.8,3,8.1,4.6
		c16.3,10.8,37.5,3.9,48-11c16.3-23.2,13.4-47.4,2.9-71.2c-9.4-21.3-26.5-36-46.9-46.8c-2.9-1.6-5.9-3.1-8.8-4.6
		c-0.3-0.1-0.4-0.5-0.6-0.9c20.3,1.6,38.3,8.7,54.1,21.2c4.1,3.3,7.5,3.7,12.6,2.2c40.3-12.5,74.5-35.3,106.4-62
		c50-41.9,94.3-89.2,133.7-141.2c1.8-2.3,3.9-4.3,5.9-6.5C736,117.7,736,118.3,736,119z"/>
	<path d="M370,0c1.6,2.8,3.5,5.6,4.7,8.5c1.4,3.2,2.4,6.5,3.2,9.9c0.3,1.3-0.1,2.8-0.4,4.2c-0.4,2-1.5,4.1-1.4,6.1
		c1.2,33.3,2.6,66.6,3.9,99.9c0.1,2.9-0.4,6.4,4.9,5.9c-0.8,1.7-1.4,3-2.2,4.7c2.9,0.9,5.6,1.6,9.1,2.6c-1,2.6-1.8,5.1-3,7.3
		c-1.1,2-3.1,3.6-4.1,5.7c-0.9,2-1.8,4.5-1.3,6.5c0.2,0.9,3.7,1.6,5.6,1.4c13.5-1.3,26-4.8,32.6-16.6c3.4,1.1,6.1,2.3,8.9,2.8
		c17,2.7,33.1,7.5,47.4,17.3c8.9,6.1,16.3,13.6,21.9,23.5c-1.3,0.2-2.1,0.4-2.8,0.3c-22.2-0.1-44.3-0.4-66.5-0.4c-4,0-6.8-1-9.2-4.4
		c-4.6-6.4-11.1-10-18.9-10.9c-1.7-0.2-4.7,0.7-5.3,1.9c-3.3,7.2-8.6,12.6-14.7,17.4c-0.6,0.5-1,1.2-2,2.4
		c7.8,3.7,5.6,10.7,5.8,16.9c0.2,8-0.1,16,0.4,24c0.2,2.7,1.6,5.9,3.5,7.7c2.9,2.9,3.8,5.7,3.7,9.7c-0.5,17.2-0.7,34.3-1,51.5
		c0,2.4-0.3,4.9-1.4,7.6c-7.6-13.5-15.2-27-23.4-41.7c-8.1,14.4-15.8,28-23.5,41.6c-0.3,0-0.6,0-1-0.1c-0.1-2.5-0.4-5.1-0.4-7.6
		c-0.3-17.3-0.5-34.7-1-52c-0.1-3.6,0.9-6.1,3.4-8.8c2.1-2.2,3.6-5.6,3.8-8.6c0.6-8.5,0.3-17,0.4-25.5c0.1-5.5-1.5-11.6,6.2-14.7
		c-2.3-2.2-4.1-3.5-5.6-5.2c-3.6-4.3-7.5-8.4-10.4-13.2c-1.9-3.2-3.8-4.1-7.2-3.5c-7.9,1.5-14.2,5.5-19.1,11.8
		c-1.2,1.5-3.3,3.3-5,3.3c-24,0.2-47.9,0.1-73.3,0.1c4.4-5.3,7.9-10.5,12.3-14.8c15.9-15.6,35.9-22.3,57.3-25.8
		c2.9-0.5,5.6-1.7,9.2-2.9c6.3,11.4,18.5,15.1,31.8,16.5c2.1,0.2,4.4-0.6,6.6-1c-0.7-2.6-0.9-5.4-2.1-7.7c-2-3.8-4.5-7.4-7.2-11.6
		c4-1.2,6.7-2.1,9.7-3c-0.7-1.5-1.2-2.7-1.9-4.4c6.1-0.3,4.7-4.9,4.9-8.4c1.1-30.3,2.1-60.6,3.1-90.9c0.2-4.8,2.2-9.9-1.7-14.3
		c-0.3-0.4-0.3-1.3-0.1-1.9c2.5-6.4,5.1-12.9,7.6-19.3C366.7,0,368.3,0,370,0z"/>
	<path d="M401.6,501.6c-4.7-2.8-8.7-5.1-12.7-7.4c-0.3-0.2-0.9,0-2.1,0.1c0.6,1.9,0.8,3.6,1.6,5.1c5.3,10.9,10.5,21.9,16.1,32.7
		c1.9,3.6,1.5,6.2-1,8.9c-2.3,2.5-4.6,5.2-7.4,8.4c-3.1-5.3-5.9-9.9-8.9-14.9c-1.4,7.6-1.5,15.1-4.4,21.3c-3,6.4-8.9,11.5-14.2,18
		c-5.4-6.3-11.5-11.2-14.7-17.7c-3-6.2-2.9-13.9-4.4-22.3c-3.2,5.3-6.2,10-9.7,15.7c-3.4-4.2-6.5-7.7-9.2-11.5
		c-0.6-0.9-0.3-2.9,0.3-4.1c5.4-11.3,10.9-22.5,16.3-33.7c0.9-1.8,1.4-3.8,2.1-5.6c-0.4-0.4-0.9-0.8-1.3-1.1
		c-4.2,2.5-8.3,5-13.1,7.9c-5.9-8.3-11.8-16.7-18.1-25.7c17.5-16.9,34.9-33.8,53.5-51.7c2.2,2.6,4.7,6.1,7.7,9.2
		c12.8,13.1,25.6,26.2,38.6,39.2c2.5,2.5,2.7,4.2,0.6,7.1C411.8,486.6,406.8,494.1,401.6,501.6z"/>
	<path d="M444.6,418.1c-51.6,0-101.7,0-153.3,0c25.6-44.4,50.8-87.9,76.6-132.7C393.7,330,418.9,373.5,444.6,418.1z M329.8,352.2
		c12.9,22.4,25.1,43.7,38.2,66.3c13-22.5,25.4-44,38.2-66.3C380.1,352.2,355.7,352.2,329.8,352.2z"/>
	<path d="M368.8,728.7c-8-6.1-12.7-13.3-15.8-21.5c-4-10.3-6.3-20.9-6.3-32.1c-0.3-36.3-1-72.6-1.5-109c0-2.6,0.6-5.3,1.7-8
		c3.4,9.1,9.1,15.5,17.2,20.2c3,1.8,5.4,1.8,8.3-0.1c7.7-5,14-11.1,15.9-20.7c0.4,0,0.9,0.1,1.3,0.1c0.4,2.3,1.3,4.6,1.2,6.9
		c-0.5,38.2-0.7,76.3-1.8,114.5c-0.4,13.2-4.4,25.9-11,37.5C375.6,720.8,372.1,724.4,368.8,728.7z"/>
	<path d="M320.1,263.3c-13.6,4.3-26.7,8.5-39.9,12.7c-3.6,1.2-7.2,2.7-10.8,3.8c-2.8,0.9-3.8,2.3-2.7,5.2c0.6,1.5,0.7,3.4,1.6,4.7
		c4.1,5.6,1.8,9.6-2.7,13.5c-2.6,2.3-4.8,5-7.2,7.6c-8.7,9.5-15.4,11.2-27.7,6.4c-5.9-2.3-13.7-3.6-16.7-8.1
		c-2.7-4.1-0.5-11.8,0.2-17.8c2.4-18.7-1.9-14.2,16.2-19.5c23.8-7,47.7-13.8,71.4-20.8c13.1-3.9,13.4-3.8,17.6,9.1
		C319.7,260.9,319.8,261.7,320.1,263.3z M234.3,301.7c8.1,0.2,15.3-5.9,15.5-13.2c0.1-5.4-4.1-9.4-10-9.5c-8.3-0.1-15.9,6.2-16,13.4
		C223.7,298.1,227.5,301.5,234.3,301.7z"/>
	<path d="M415.5,262.8c1.6-4.2,2.9-8.1,4.8-11.8c0.6-1.2,2.9-2.2,4.4-2.2c2.4,0,4.9,0.8,7.3,1.5c26.1,7.5,52.1,15.1,78.2,22.6
		c9.7,2.8,9.8,2.7,11,12.6c0.8,6.8,1.6,13.6,1.9,20.4c0.1,1.4-1.3,3.7-2.6,4.4c-6.1,2.9-12.3,6.2-18.8,7.9c-8,2-16.3,2.9-22.4-5.4
		c-3.5-4.8-8-9-12.2-13.2c-1.9-1.9-2.2-3.5-1.2-6.1c6-14.7,6-11.8-7.7-16.6c-12.1-4.3-24.4-7.9-36.6-11.8
		C419.8,264.5,418,263.7,415.5,262.8z M501.5,301.7c6.8-0.1,10.7-3.5,10.7-9.2c0-7.2-7.5-13.6-15.8-13.6c-5.9,0-10.2,3.9-10.2,9.4
		C486.2,295.5,493.4,301.8,501.5,301.7z"/>
	<path d="M331.8,592.3c3.4-4.1,5.9-7.2,9.5-11.5c0,17.9,0,34.6,0,51.6c-16.3-11.9-31.2-25.7-45.3-40.2c3.7-6.5,3.9-7.8-1.6-13.1
		c-3.9-3.7-5.3-7.5-4.4-12.7c0.9-4.9,1.1-9.9,1.7-15.6C305.2,564.9,318.3,578.3,331.8,592.3z"/>
	<path d="M394.5,633.9c0-18.5,0-35.1,0-53.2c3.6,4.3,6.3,7.5,9.7,11.6c13.5-13.9,26.5-27.4,40.1-41.4c0.8,7.5,1.6,14.6,2.1,21.6
		c0.1,1.1-1,2.3-1.8,3.3c-1.4,1.7-3,3.1-4.4,4.8c-3.9,4.8-3.9,5.5,0.4,12.1C425.6,606.1,410.5,619.6,394.5,633.9z"/>
	<path d="M335.5,510.1c-2,6.9-4.6,11.1-10.1,13.7c-11.1,5.3-21.9,11.2-32.9,16.8c-3,1.5-4.3,3.7-4.5,7.1c-0.5,7.1-1,14.3-2,21.4
		c-0.6,4.2,0.1,7.4,3.4,10.2c2.1,1.8,3.8,4.2,5.9,6.6c-3.2,4.5-6.4,8.9-9.6,13.4c-0.5-0.1-1-0.2-1.6-0.3c0.2-2.3,0.6-4.7,0.6-7
		c0-2.3,0.4-5.3-0.8-6.6c-1.2-1.3-4.3-1-6.5-1.3c-0.6-0.1-1.2,0.5-1.9,0.7c-11.6,2.7-19.1,9.3-20.7,21.6c-0.1,1.1-0.6,2.2-0.9,3.3
		c-0.6,0-1.2,0-1.8,0c-0.1-3.7-0.4-7.3-0.4-11c-0.1-7.4,3.4-12.7,10-15.8c10.4-4.9,15.8-12.6,16.1-24.4c0.2-6.9,2-13.8,3.3-20.7
		c0.3-1.4,1.2-3.3,2.4-3.8C300.5,526.1,317.4,518.4,335.5,510.1z"/>
	<path d="M400.5,510.1c18.2,8.3,35.1,16,52,23.9c1.2,0.6,2.1,2.8,2.4,4.4c1.8,10.2,3.5,20.3,5.1,30.5c0.5,3.6,1.9,6.1,5.1,8
		c3.9,2.2,7.6,4.8,11.3,7.4c6.9,4.8,10.3,15.3,7.6,23.3c-0.3,0.8-0.7,1.4-1.5,2.9c-1.6-4.9-3.1-9-4.2-13.2c-0.9-3.7-3-6.2-6.4-7.7
		c-4.8-2-9.4-4.2-14.3-5.7c-1.6-0.5-4.4,0.2-5.5,1.5c-1.1,1.2-1.1,3.8-1,5.7c0.1,2.5,0.8,5,1.2,7.6c-0.6,0.2-1.1,0.4-1.7,0.6
		c-2.9-3.9-5.9-7.8-8.5-11.8c-0.5-0.8,0-3.1,0.8-3.7c8-5.9,8.5-13.8,6.5-22.6c-0.6-2.7-1-5.7-0.8-8.4c0.7-7.9-3.5-12-10.2-15.1
		c-9.7-4.5-19-9.7-28.6-14.3C404.5,520.8,402.4,516.5,400.5,510.1z"/>
	<path d="M463.2,483.3c9.6,11.8,12,30.5,31.7,33.9c-8.4,16.3-19.2,31.9-31.5,47.9c-1.2-7.2-1.5-13.6-3.5-19.6
		c-3.1-9.7-0.2-17.3,5.3-25.3c7.4-10.8,7.2-8.2-1.2-19c-0.4-0.5-0.9-1-1.3-1.5C456,491.9,456,491.9,463.2,483.3z"/>
	<path d="M272.9,482.5c2,3.2,4,5.9,5.3,8.9c0.4,1-0.4,3-1.3,4.1c-3.1,4.1-6.8,7.8-9.6,12.1c-1,1.5-1.2,4.6-0.4,6.2
		c2.9,5.4,6.4,10.5,9.5,15.8c0.9,1.5,1.7,3.4,1.4,5c-1.5,9.8-3.4,19.6-6.4,30.1c-10.4-15.8-20.9-31.7-31.3-47.5
		c0.2-0.4,0.5-0.8,0.7-1.2c10.7,1.7,15.2-6,19.9-12.9C265,496.8,268.6,489.8,272.9,482.5z"/>
	<path d="M397.4,281.6c0-9.5-0.1-18.8,0.1-28.1c0.1-4.4-0.7-8-4.3-11.1c-1.9-1.6-2.5-4.6-3.7-6.9c0.4-0.4,0.9-0.8,1.3-1.3
		c6.5,2.8,12.9,5.5,19.4,8.3c9.1,3.9,9.1,3.9,5.5,12.9c-2.8,6.9-6.1,13.7-8.7,20.7C405.3,281,402.5,282.9,397.4,281.6z"/>
	<path d="M346.6,235.7c-1.4,2.4-2.2,5.3-4.2,7.2c-3,2.8-3.9,5.9-3.9,9.8c0.1,9.6,0,19.2,0,29c-4.5,1.1-7.5,0-9.4-4.9
		c-3.2-8.7-7-17.2-10.7-25.8c-1.3-3.2-0.8-5,2.7-6.4c8-3.1,15.9-6.7,23.8-10.1C345.5,234.8,346.1,235.2,346.6,235.7z"/>
	<path d="M228.4,430.1c-5.8,0.4-11.6,0.8-18.2,1.3c-1.1-11.6-2.1-22.8-3.2-34.3c4.5,0,8.5-0.2,12.4,0.1c0.8,0.1,2.1,1.5,2.3,2.6
		C224,409.7,226.1,419.6,228.4,430.1z"/>
	<path d="M525.8,431.4c-6.6-0.5-12.3-0.9-18.6-1.3c1.9-7.6,3.9-14.7,5.5-21.9c2.6-12,2.5-12,16.1-11.1
		C527.8,408.4,526.8,419.6,525.8,431.4z"/>
	<path d="M526.2,339.8c0.7,10,1.4,19.2,2.1,29.5c-5.3,0.3-10.4,0.7-15.4,0.9c-0.7,0-2-0.9-2.1-1.6c-1.3-6.3-2.5-12.6-3.5-18.9
		c-0.1-0.9,1.3-2.7,2.3-3.1C514.9,344.3,520.1,342.3,526.2,339.8z"/>
	<path d="M207.7,369.3c0.7-10.1,1.4-19.5,2.1-29.4c6,2.4,11.4,4.4,16.7,6.8c1.1,0.5,2.3,2.6,2.2,3.7c-0.8,5.9-1.9,11.7-3.2,17.5
		c-0.2,1-2,2.3-3,2.3C217.6,370.1,212.9,369.7,207.7,369.3z"/>
	<path d="M238.5,454.8c5.5,10.3,5.5,10.3,11.6,11.2c-7.2,7.8-16,11.8-26.2,14.9c-2.3-6.4-4.5-12.8-6.9-19.6
		C224.3,459.1,231.3,457,238.5,454.8z"/>
	<path d="M519,461.3c-2.3,6.7-4.5,13.1-7.2,20.9c-9.2-5-17.6-9.7-26-14.3c-0.1-0.7-0.1-1.5-0.2-2.2c8.5,1,9.4-5.3,11.5-10.9
		C504.3,456.9,511.4,459,519,461.3z"/>
	<path d="M233.8,299.9c-4.9,0-7.9-2.6-7.9-6.9c0-5.8,6.5-11.6,13.2-11.8c5-0.1,8.7,2.7,8.8,6.8C248.1,294.1,241.2,299.9,233.8,299.9
		z"/>
	<path d="M502.1,299.9c-7.2-0.1-13.8-5.6-14-11.6c-0.1-4.1,3.5-7.1,8.5-7.2c6.9,0,13.7,6,13.6,12C510,297.4,507,300,502.1,299.9z"/>
</g>
</svg>
